<svg xmlns="http://www.w3.org/2000/svg" viewBox="0 0 32 40" x="0px" y="0px"><title>1-User</title><g data-name="1-User"><path d="M28.49,22.63a.71.71,0,0,0-1,0l-.7.7-.7-.7a.71.71,0,0,0-1,1l.7.7-.7.7a.71.71,0,1,0,1,1l.7-.7.7.7a.71.71,0,1,0,1-1l-.7-.7.7-.7A.71.71,0,0,0,28.49,22.63Z"/><path d="M28.66,20.68V7.55a2,2,0,0,0-1.93-2H3.83a2,2,0,0,0-1.93,2v16.9a2,2,0,0,0,1.93,2H23.16a4.15,4.15,0,1,0,5.5-5.82ZM3.83,25.5a1,1,0,0,1-.93-1V7.55a1,1,0,0,1,.93-1h22.9a1,1,0,0,1,.93,1V20.31a3.83,3.83,0,0,0-1-.12,4.06,4.06,0,0,0-1.93.48l-5.06-8.91a.11.11,0,0,0-.19,0L13,21.69a.11.11,0,0,1-.18,0L9.37,17.27a.11.11,0,0,0-.18,0L3.92,24.16a.11.11,0,0,0,.09.18H22.55a4.07,4.07,0,0,0,.17,1.16Zm22.87,2a3.06,3.06,0,0,1-2.28-1,3.14,3.14,0,0,1-.65-1,3.19,3.19,0,0,1-.22-1.16,3.14,3.14,0,0,1,1.7-2.79,3.15,3.15,0,0,1,3.41.32,3.16,3.16,0,0,1-2,5.63Z"/><circle cx="7.16" cy="11.44" r="2.09"/></g><text x="0" y="47" fill="#000000" font-size="5px" font-weight="bold" font-family="'Helvetica Neue', Helvetica, Arial-Unicode, Arial, Sans-serif">Created by Hugs</text><text x="0" y="52" fill="#000000" font-size="5px" font-weight="bold" font-family="'Helvetica Neue', Helvetica, Arial-Unicode, Arial, Sans-serif">from the Noun Project</text></svg>